<?xml version="1.0" encoding="utf-8"?>
<!-- Generator: Adobe Illustrator 13.0.0, SVG Export Plug-In . SVG Version: 6.00 Build 14948)  -->
<!DOCTYPE svg PUBLIC "-//W3C//DTD SVG 1.1//EN" "http://www.w3.org/Graphics/SVG/1.1/DTD/svg11.dtd">
<svg version="1.1" id="Layer_1" xmlns="http://www.w3.org/2000/svg" xmlns:xlink="http://www.w3.org/1999/xlink" x="0px" y="0px"
	 width="250px" height="70px" viewBox="0 0 250 70" enable-background="new 0 0 250 70" xml:space="preserve">
<g id="Layer_2">
	<g id="Layer_1-2">
		<path id="ts_2171" fill="#DC0330" d="M138.371,28.814c-1.896,6.023-4.188,11.917-6.852,17.643
			c-2.529-6.104-4.969-11.836-6.869-17.643c-1.392,0.309-2.834,0.309-4.227,0c1.225,2.752,6.522,15.191,8.854,21.15h-11.327v-0.521
			c-0.676,0.188-1.368,0.297-2.069,0.32c-3.631,0-3.724-3.492-3.724-6.945c0-3.998,0.229-11.218,0.32-11.677
			c1.103,0,3.265,0,4.873,0.092c-0.035-0.32-0.052-0.644-0.043-0.967c-0.009-0.321,0.008-0.643,0.043-0.961
			c-2.113,0.09-4.23,0.135-4.873,0.135c0.092-2.252,0.184-4.506,0.367-6.803h-0.229l-3.819,1.609
			c0.093,1.977,0.14,3.952,0.188,5.146c-0.646,0-1.659-0.047-3.036-0.141c0.052,0.305,0.083,0.61,0.092,0.918
			c-0.008,0.355-0.04,0.708-0.092,1.059c1.194-0.092,2.206-0.092,3.128-0.092c-0.047,6.851-0.324,10.991-0.324,14.335
			c0,1.963,0.557,3.498,1.682,4.488H99.668c-0.217-2.464-0.295-5.324-0.295-7.814v-4.777c0-2.756,0.092-5.977,0.368-8.598
			c-1.363,0.31-2.776,0.31-4.139,0c0.274,2.621,0.367,5.842,0.367,8.598v4.777c0,2.49-0.074,5.358-0.291,7.822h-9.117
			c-0.063-1.715-0.064-3.404-0.064-5.146c0-3.127,0.184-5.881,0.184-8.506c0-6.347-3.951-8-7.353-8
			c-3.308,0-5.657,1.518-7.351,4.139h-0.092c0-1.242,0.047-2.438,0.139-3.676c-1.283,0.31-2.623,0.31-3.907,0
			c0.274,2.621,0.366,5.84,0.366,8.597v4.778c0,2.507-0.075,5.389-0.297,7.857h-7.26c9.471-15.479,4.6-35.705-10.88-45.176
			C34.568-4.636,14.341,0.235,4.871,15.713c-3.17,5.181-4.842,11.138-4.83,17.212c-0.011,6.47,1.901,12.8,5.491,18.185h0.022
			l0.423,0.656l123.338-0.192c-1.504,3.602-3.279,7.083-5.313,10.417c1.02-0.311,2.107-0.311,3.127,0
			c1.932-6.249,12.613-29.822,14.271-33.178c-0.988,0.31-2.047,0.31-3.035,0h0.006V28.814L138.371,28.814z M58.833,42.191v-4.777
			c0-2.755,0.092-5.977,0.368-8.596c-1.362,0.309-2.777,0.309-4.14,0c0.276,2.621,0.369,5.841,0.369,8.596v4.777
			c0,2.513-0.078,5.404-0.299,7.879l-13.6,0.021c-0.129-2.004-0.129-4.711-0.129-11.851c0-3.586,1.746-6.393,4.689-6.393
			c0.92,0,1.93,0.369,2.254,0.736l0.319-0.23c0-1.239,0-2.988,0.323-3.725c-0.465-0.197-0.967-0.291-1.471-0.275
			c-2.117,0-4.322,1.654-6.071,4.966l-0.093-0.048c-0.017-1.489,0.06-2.979,0.225-4.459c-0.604,0.146-1.219,0.225-1.838,0.231
			c-0.65-0.01-1.299-0.088-1.934-0.231c0.184,3.955,0.184,7.127,0.184,9.52v1.473c0,4.648,0,8.021-0.137,10.293l-11.803,0.018
			c-0.176-3.735-0.338-7.502-0.338-11.229v-7.912c0-3.17,0.047-6.342,0.141-9.517c3.287-0.008,6.574,0.161,9.843,0.504
			c-0.142-0.463-0.22-0.942-0.228-1.427c0.008-0.498,0.086-0.992,0.228-1.471c-3.952,0.141-7.906,0.231-11.861,0.231
			s-7.907-0.091-11.862-0.231c0.138,0.465,0.215,0.943,0.228,1.428c-0.005,0.499-0.082,0.993-0.228,1.47
			c3.269-0.343,6.554-0.511,9.84-0.504c0.093,3.171,0.139,6.345,0.136,9.517v7.912c0,3.728-0.162,7.5-0.334,11.231L7.648,50.141
			c-9.503-13.945-5.903-32.952,8.041-42.456c13.944-9.502,32.951-5.902,42.455,8.041c6.74,9.891,7.086,22.805,0.881,33.042
			C58.884,46.618,58.833,44.277,58.833,42.191z M83.116,40.539c0,3.271-0.195,6.388-0.298,9.495H72.191
			c-0.221-2.472-0.297-5.354-0.297-7.854v-3.883c0-4.778,1.934-7.542,6.207-7.542c3.037,0,5.015,2.485,5.015,6.983V40.539z
			 M97.691,23.693c1.295,0,2.344-1.051,2.344-2.346c0-1.295-1.049-2.345-2.344-2.345s-2.346,1.05-2.346,2.345
			c0,0.002,0,0.002,0,0.004c0.006,1.291,1.051,2.336,2.342,2.342H97.691z M57.312,19.007c-1.295,0-2.347,1.049-2.347,2.344
			s1.05,2.347,2.347,2.347c1.295,0,2.345-1.05,2.345-2.347C59.652,20.058,58.605,19.011,57.312,19.007z M148.299,25.623
			c-0.523-0.55-1.254-0.857-2.016-0.85c-0.756-0.012-1.482,0.296-1.998,0.85c-0.266,0.271-0.475,0.59-0.617,0.941
			c-0.145,0.361-0.217,0.746-0.217,1.135c-0.002,0.768,0.299,1.506,0.834,2.055c0.52,0.551,1.242,0.863,1.998,0.864
			c1.158-0.005,2.199-0.712,2.629-1.786c0.146-0.361,0.219-0.744,0.221-1.133C149.141,26.925,148.84,26.177,148.299,25.623
			L148.299,25.623z M147.82,29.298c-0.188,0.211-0.422,0.377-0.684,0.485c-0.551,0.215-1.156,0.215-1.705,0
			c-0.26-0.111-0.488-0.276-0.674-0.485c-0.201-0.201-0.357-0.443-0.461-0.709c-0.104-0.289-0.156-0.596-0.156-0.904
			c-0.027-0.605,0.195-1.196,0.617-1.633c0.396-0.416,0.951-0.643,1.523-0.621c0.578-0.014,1.131,0.217,1.525,0.637
			c0.805,0.932,0.805,2.313,0,3.246L147.82,29.298z M147.273,28.597l-0.445-0.658c0.201-0.03,0.391-0.12,0.541-0.258
			c0.084-0.086,0.148-0.192,0.188-0.308c0.045-0.146,0.064-0.297,0.064-0.448c0-0.701-0.387-1.05-1.156-1.045h-1.229
			c-0.033,0-0.047,0-0.047,0.045v3.355c-0.004,0.023,0.016,0.045,0.039,0.048c0.002,0,0.006,0,0.008,0h0.551
			c0.029,0,0.045,0,0.045-0.048v-1.3h0.242l0.922,1.342c0.01,0.013,0.025,0.021,0.041,0.021h0.641c0.02,0,0.037-0.009,0.049-0.025
			c0.01-0.014,0.01-0.033,0-0.047L147.273,28.597z M146.281,27.355h-0.453v-0.85h0.463c0.168-0.005,0.334,0.023,0.488,0.081
			c0.137,0.07,0.217,0.216,0.199,0.367c0.012,0.159-0.08,0.308-0.229,0.368c-0.152,0.042-0.313,0.059-0.471,0.047L146.281,27.355
			L146.281,27.355z M55.605,59.736c-0.028-1.237,0.951-2.264,2.189-2.293c0.063-0.004,0.126,0,0.189,0.004
			c1.385,0,1.937,1.052,2.205,1.734h0.224c0.09-0.537,0.257-1.06,0.497-1.547c-0.775-0.611-1.746-0.92-2.73-0.869
			c-2.453,0-4,1.438-4,3.484c0,4.334,5.809,2.878,5.809,6.271c0.072,1.399-1.008,2.599-2.411,2.67
			c-0.074,0.004-0.149,0.004-0.226,0.002c-1.267-0.002-2.41-0.754-2.916-1.916h-0.221c-0.035,0.563-0.16,1.117-0.367,1.641
			c0.85,0.715,1.935,1.09,3.045,1.051c2.84,0,4.518-1.898,4.518-4.148c0.018-4.063-5.805-2.62-5.805-6.067V59.736z M84.67,68.864
			c0-1.81-0.055-3.984-0.055-7.083c0-1.586,0.073-3.188,0.147-4.778c-0.598,0.121-1.213,0.121-1.81,0
			c0.073,1.588,0.147,3.19,0.147,4.778v3.172c0,1.588-0.074,3.189-0.147,4.777c1.144-0.055,2.269-0.092,3.411-0.092
			s2.271,0.037,3.396,0.092c-0.059-0.178-0.091-0.365-0.097-0.555c0.005-0.188,0.038-0.373,0.097-0.552
			c-1.688,0.201-3.392,0.285-5.092,0.254L84.67,68.864L84.67,68.864z M71.761,56.768c-4.044,0-6.896,2.416-6.896,6.616
			s2.837,6.615,6.896,6.615s6.914-2.415,6.914-6.615s-2.838-6.602-6.914-6.602V56.768L71.761,56.768z M71.761,69.287
			c-2.878,0-5.091-1.837-5.091-5.918c0-4.08,2.205-5.922,5.091-5.922c2.887,0,5.109,1.838,5.109,5.922s-2.209,5.936-5.109,5.936
			V69.287z M116.198,59.938c0-2.207-1.753-2.916-3.837-2.916c-0.699,0-1.401,0.093-2.104,0.093c-0.7,0-1.399-0.036-2.099-0.093
			c0.072,1.588,0.146,3.189,0.146,4.778v3.173c0,1.588-0.074,3.189-0.146,4.777c0.595-0.123,1.21-0.123,1.806,0
			c-0.073-1.588-0.146-3.189-0.146-4.777v-1.351h0.701c1.584,1.604,4.043,4.999,4.776,6.123c0.354-0.058,0.713-0.088,1.07-0.091
			c0.368,0.003,0.737,0.033,1.104,0.091c-1.07-1.197-4.15-5.163-5.056-6.289C113.828,63.292,116.198,62.313,116.198,59.938z
			 M109.818,62.85v-1.054c0-1.325,0.054-2.651,0.109-4c0.594-0.062,1.19-0.092,1.789-0.091c1.254,0,2.856,0.479,2.856,2.415
			c0,2.205-2.009,2.823-3.522,2.823c-0.41,0.013-0.822-0.021-1.227-0.098h-0.006V62.85z M98.421,56.783
			c-1.882,4.351-3.801,8.646-5.775,12.963c0.447-0.123,0.92-0.123,1.367,0c0.508-1.678,1.104-3.329,1.787-4.941
			c0.758-0.021,1.497-0.035,2.25-0.035c0.813,0,1.624,0.017,2.42,0.035c0.661,1.644,1.547,3.676,1.896,4.941
			c0.645-0.121,1.309-0.121,1.955,0c-0.979-1.975-3.742-8.686-5.551-12.963H98.421z M98.187,63.99c-0.644,0-1.346-0.037-1.988-0.037
			l1.988-4.684l2.047,4.684C99.554,63.973,98.853,63.99,98.187,63.99z"/>
	</g>
</g>
</svg>
